Hanif_Medium_5_0_grf.mot
version=1
nRows=42
nColumns=19
inDegrees=yes
endheader
time	right_ground_force_vx	right_ground_force_vy	right_ground_force_vz	right_ground_force_px	right_ground_force_py	right_ground_force_pz	right_ground_torque_x	right_ground_torque_y	right_ground_torque_z	left_ground_force_vx	left_ground_force_vy	left_ground_force_vz	left_ground_force_px	left_ground_force_py	left_ground_force_pz	left_ground_torque_x	left_ground_torque_y	left_ground_torque_z
5.200000	-2.969630	283.181000	55.616000	0.230487	0.000000	-1.429010	-21.804100	-1.665610	8.684260	1.874500	284.630000	-59.023300	0.229366	0.000000	-0.978197	21.380900	-1.822540	9.066440
5.205000	-2.505960	281.025000	56.036700	0.230847	0.000000	-1.428170	-21.875100	-1.729690	8.707380	2.330350	285.890000	-58.824300	0.229082	0.000000	-0.978159	21.460600	-1.714210	8.982850
5.210000	-1.952820	281.910000	56.093400	0.230226	0.000000	-1.428720	-21.787800	-1.672940	8.555500	1.447420	283.364000	-58.763600	0.228159	0.000000	-0.977740	21.162100	-1.716110	8.655790
5.215000	-1.640970	281.943000	56.745200	0.230028	0.000000	-1.428810	-21.765500	-1.575420	8.517450	1.577920	281.385000	-58.506700	0.228854	0.000000	-0.978409	21.200700	-1.716880	8.802410
5.220000	-1.115090	284.365000	57.211700	0.229286	0.000000	-1.429810	-21.665900	-1.570630	8.366060	1.408180	282.741000	-58.059900	0.228440	0.000000	-0.977645	21.088800	-1.757160	8.719440
5.225000	-1.309890	283.215000	57.263700	0.229177	0.000000	-1.429650	-21.625200	-1.475260	8.323100	1.345690	282.650000	-58.343900	0.227917	0.000000	-0.978108	21.213600	-1.752680	8.567930
5.230000	-0.821511	284.944000	57.584400	0.228985	0.000000	-1.430020	-21.651300	-1.521380	8.301650	1.848330	282.094000	-57.964800	0.227954	0.000000	-0.978310	21.223800	-1.698790	8.539100
5.235000	-0.900158	284.402000	57.743000	0.229757	0.000000	-1.430100	-21.588000	-1.418130	8.537620	1.788250	280.420000	-57.953000	0.227450	0.000000	-0.978585	21.175300	-1.705340	8.350880
5.240000	-0.945098	282.840000	57.999600	0.229916	0.000000	-1.429520	-21.633100	-1.555410	8.513070	1.608310	280.539000	-57.711500	0.227715	0.000000	-0.977718	20.942400	-1.812010	8.452290
5.245000	-1.131800	284.741000	57.719400	0.229122	0.000000	-1.429430	-21.803500	-1.435580	8.359630	1.996440	280.867000	-58.061000	0.227678	0.000000	-0.978338	21.136800	-1.805350	8.448290
5.250000	-1.169460	284.654000	57.182600	0.229504	0.000000	-1.429420	-21.800000	-1.544160	8.445040	1.879930	281.294000	-57.699000	0.227298	0.000000	-0.977702	20.991300	-1.848710	8.352130
5.255000	-1.834470	285.344000	57.515900	0.229842	0.000000	-1.429250	-21.901600	-1.531000	8.580890	2.327350	280.043000	-57.830300	0.227661	0.000000	-0.978307	21.062400	-1.817420	8.415840
5.260000	-2.084590	285.600000	57.459200	0.229544	0.000000	-1.429820	-21.760000	-1.542450	8.501080	2.409830	282.360000	-57.606800	0.226826	0.000000	-0.977441	20.991900	-1.825820	8.225700
5.265000	-1.654030	284.657000	57.181300	0.230109	0.000000	-1.428780	-21.982100	-1.503280	8.640110	1.971830	281.088000	-57.404900	0.227094	0.000000	-0.978233	21.124000	-1.889460	8.288870
5.270000	-1.399110	285.672000	56.548400	0.230548	0.000000	-1.428130	-22.247600	-1.492000	8.794930	1.362510	282.123000	-57.022400	0.227595	0.000000	-0.977766	21.077600	-1.794890	8.445400
5.275000	-1.469600	283.999000	56.691900	0.230920	0.000000	-1.428390	-22.041900	-1.615510	8.831380	1.560820	281.105000	-56.576600	0.227277	0.000000	-0.977938	21.047500	-1.802700	8.317540
5.280000	-1.471520	285.760000	55.898400	0.230484	0.000000	-1.427570	-22.414800	-1.525620	8.768520	1.205400	281.332000	-56.537700	0.227235	0.000000	-0.977752	21.015900	-1.877230	8.330740
5.285000	-1.942850	285.050000	55.912500	0.230532	0.000000	-1.428370	-22.131700	-1.563390	8.761040	1.505320	279.847000	-55.790000	0.228082	0.000000	-0.978213	21.030300	-1.859230	8.519200
5.290000	-1.959670	282.403000	55.187900	0.231990	0.000000	-1.427180	-22.261900	-1.671570	9.082580	1.072800	279.143000	-55.833300	0.227502	0.000000	-0.978447	21.047800	-1.864560	8.340840
5.295000	-2.527680	283.309000	54.978800	0.232332	0.000000	-1.426190	-22.614400	-1.634420	9.226990	0.994422	277.955000	-55.812900	0.227498	0.000000	-0.978627	21.009300	-1.776480	8.293060
5.300000	-2.468490	284.104000	54.094900	0.232311	0.000000	-1.426900	-22.475500	-1.613030	9.242470	1.005540	278.281000	-55.152900	0.227883	0.000000	-0.978503	20.999300	-1.801160	8.405940
5.305000	-2.993410	283.338000	53.635700	0.233140	0.000000	-1.425630	-22.774800	-1.635590	9.462170	1.472270	277.028000	-55.077400	0.227892	0.000000	-0.978364	20.860700	-1.801530	8.368520
5.310000	-2.913650	281.942000	52.942200	0.233725	0.000000	-1.425640	-22.661200	-1.729190	9.563090	1.567600	277.366000	-54.700900	0.228381	0.000000	-0.978973	21.054300	-1.765760	8.502880
5.315000	-2.933500	280.583000	52.125000	0.234284	0.000000	-1.423720	-23.089100	-1.756820	9.669930	1.452080	277.588000	-54.178300	0.228559	0.000000	-0.978697	20.995900	-1.773600	8.554480
5.320000	-3.250960	279.366000	51.484900	0.235138	0.000000	-1.423900	-22.939700	-1.778200	9.871100	1.449230	275.966000	-53.819700	0.228450	0.000000	-0.979019	20.961900	-1.774790	8.474510
5.325000	-3.437260	278.757000	50.783900	0.235290	0.000000	-1.422990	-23.142200	-1.815490	9.884930	1.183100	276.081000	-53.524500	0.228404	0.000000	-0.978541	20.841900	-1.748120	8.458060
5.330000	-4.010850	275.911000	49.536600	0.236703	0.000000	-1.420990	-23.458300	-1.880640	10.176700	0.468682	275.170000	-52.477700	0.228774	0.000000	-0.979260	20.979100	-1.646850	8.512920
5.335000	-4.673980	276.067000	48.526500	0.237634	0.000000	-1.420620	-23.575000	-1.903630	10.446000	-0.082452	272.468000	-51.788600	0.228530	0.000000	-0.979477	20.838400	-1.656340	8.370260
5.340000	-5.150710	274.320000	47.328100	0.237999	0.000000	-1.420800	-23.374900	-2.027600	10.460100	-0.300275	270.589000	-51.175400	0.229785	0.000000	-0.979543	20.715100	-1.546270	8.644590
5.345000	-5.848070	272.493000	46.714000	0.238587	0.000000	-1.419860	-23.477800	-2.020750	10.563800	-1.439330	268.842000	-50.090900	0.229542	0.000000	-0.979397	20.555600	-1.557630	8.528640
5.350000	-6.554960	269.977000	45.142300	0.239800	0.000000	-1.418580	-23.607000	-2.095440	10.790900	-2.065700	266.484000	-48.682300	0.230130	0.000000	-0.979679	20.457500	-1.428290	8.587040
5.355000	-7.629250	268.954000	44.024400	0.240654	0.000000	-1.418850	-23.445400	-2.241200	10.969100	-1.967020	263.138000	-48.045800	0.230503	0.000000	-0.979971	20.276400	-1.378600	8.573500
5.360000	-8.216440	264.781000	42.735800	0.241482	0.000000	-1.416300	-23.756100	-2.341890	11.010800	-2.022740	258.186000	-46.633000	0.230817	0.000000	-0.981092	20.186000	-1.415390	8.500290
5.365000	-8.305860	260.703000	41.837600	0.242834	0.000000	-1.416490	-23.337400	-2.465100	11.178400	-1.819150	253.140000	-45.191000	0.230873	0.000000	-0.982077	20.038300	-1.346210	8.330260
5.370000	-8.275490	257.566000	40.920100	0.243307	0.000000	-1.415460	-23.320900	-2.481810	11.160600	-2.402390	246.891000	-43.466700	0.231286	0.000000	-0.982447	19.642100	-1.270260	8.220960
5.375000	-8.056060	254.051000	40.650900	0.243380	0.000000	-1.415720	-22.935300	-2.507650	11.017900	-2.991430	240.480000	-41.456000	0.231225	0.000000	-0.983120	19.301200	-1.193190	7.979230
5.380000	-8.320150	248.701000	38.929300	0.242699	0.000000	-1.414840	-22.667500	-2.506290	10.605800	-3.806020	235.508000	-39.392200	0.231453	0.000000	-0.982126	18.680300	-1.264610	7.876660
5.385000	-8.707240	243.197000	37.039000	0.243588	0.000000	-1.414420	-22.263600	-2.635660	10.566400	-4.712800	224.569000	-36.093900	0.231556	0.000000	-0.983735	18.187100	-1.166580	7.518180
5.390000	-9.646300	236.969000	35.728500	0.244152	0.000000	-1.414100	-21.769700	-2.677250	10.430500	-5.606630	213.840000	-33.267600	0.232223	0.000000	-0.982770	17.126400	-1.085570	7.295720
5.395000	-10.001600	232.434000	34.628400	0.244832	0.000000	-1.413030	-21.592300	-2.896800	10.358600	-6.396980	201.461000	-30.555200	0.231185	0.000000	-0.984060	16.413500	-1.145940	6.679510
5.400000	-11.253800	226.996000	32.936100	0.246065	0.000000	-1.412160	-21.284900	-2.882780	10.411800	-6.600230	190.817000	-28.003800	0.229406	0.000000	-0.983625	15.469300	-1.090700	5.970280
5.405000	-13.667000	220.892000	31.502800	0.245976	0.000000	-1.410970	-20.971800	-3.074280	10.109100	-6.376610	179.877000	-25.298400	0.229078	0.000000	-0.982922	14.462200	-1.179860	5.571520
